<?xml version="1.0" encoding="utf-8"?>
<!-- Svg Vector Icons : http://www.onlinewebfonts.com/icon -->
<!DOCTYPE svg PUBLIC "-//W3C//DTD SVG 1.1//EN" "http://www.w3.org/Graphics/SVG/1.1/DTD/svg11.dtd">
<svg version="1.1" xmlns="http://www.w3.org/2000/svg" xmlns:xlink="http://www.w3.org/1999/xlink" x="0px" y="0px" viewBox="0 0 1000 1000" enable-background="new 0 0 1000 1000" xml:space="preserve" fill="rgba(255, 255, 255, 0.4)">
<metadata> Svg Vector Icons : http://www.onlinewebfonts.com/icon </metadata>
<g><path d="M501.4,219.4c27.5,0,49.8-22.4,49.8-49.8c0-27.5-22.4-49.8-49.8-49.8c-27.5,0-49.8,22.4-49.8,49.8C451.6,197,473.9,219.4,501.4,219.4z"/><path d="M425.3,277.4L247.2,99.3c29.6-24.5,62.5-44.4,98.1-59.4C394.3,19.1,446.3,8.6,500,8.6c53.7,0,105.7,10.5,154.8,31.3c47.3,20,89.9,48.7,126.4,85.2c36.5,36.5,65.2,79,85.2,126.4c20.7,49,31.3,101.1,31.3,154.8c0,71-19,140.7-54.8,201.6c-10.6,18-22.6,35.1-35.9,51.2L697.2,549.3c8.9-23.3,13.7-48.5,13.7-74.8c0-116.3-94.6-210.8-210.8-210.8C473.7,263.7,448.5,268.5,425.3,277.4z M451.6,169.6c0,27.5,22.4,49.8,49.8,49.8c27.5,0,49.8-22.4,49.8-49.8c0-27.5-22.4-49.8-49.8-49.8C473.9,119.7,451.6,142.1,451.6,169.6z"/><path d="M744.9,921.4h-64.5L626,783.3c2.3-0.8,4.7-1.6,7-2.4l-98.4-98.4c-11.2,1.9-22.8,2.8-34.5,2.8c-116.2,0-210.8-94.6-210.8-210.8c0-11.8,1-23.3,2.8-34.5L125.3,273.1c-15.1,42.6-22.8,87.2-22.8,133c0,53.7,10.5,105.7,31.3,154.7c20,47.3,48.7,89.9,85.2,126.4c36.5,36.5,79,65.2,126.4,85.2c11.6,4.9,23.4,9.3,35.4,13l-54.8,135.9h-70.7c-19.3,0-35,15.7-35,35c0,19.3,15.7,35,35,35h489.7c19.3,0,35-15.7,35-35C779.8,937.1,764.2,921.4,744.9,921.4z"/><path d="M483.5,631.3L343.3,491.1C351,564.8,409.8,623.6,483.5,631.3z"/><path d="M500.1,316.8c-11,0-21.8,1.1-32.1,3.3l186.5,186.5c2.2-10.4,3.3-21.1,3.3-32.1C657.8,387.5,587,316.8,500.1,316.8z"/><path d="M979.4,929.9L70.1,20.6c-14-13.9-36.3-14.2-50-0.5c-13.7,13.7-13.4,36,0.5,50l909.3,909.3c14,14,36.3,14.2,50,0.5C993.6,966.3,993.3,943.9,979.4,929.9z"/></g>
</svg>